<svg xmlns="http://www.w3.org/2000/svg" viewBox="0 0 1200 630" width="1200" height="630">
  <defs>
    <linearGradient id="bg" x1="0" y1="0" x2="1" y2="1">
      <stop offset="0" stop-color="#0a84ff"/>
      <stop offset="0.55" stop-color="#5856d6"/>
      <stop offset="1" stop-color="#af52de"/>
    </linearGradient>
    <linearGradient id="phone" x1="0" y1="0" x2="0" y2="1">
      <stop offset="0" stop-color="#1c1c1e"/>
      <stop offset="1" stop-color="#0b0b0d"/>
    </linearGradient>
  </defs>
  <rect width="1200" height="630" fill="url(#bg)"/>
  <g font-family="-apple-system, SF Pro Display, Helvetica, sans-serif" fill="#fff">
    <text x="80" y="170" font-size="34" opacity=".85" font-weight="600" letter-spacing="2">ROSTERLOG</text>
    <text x="80" y="280" font-size="86" font-weight="800" letter-spacing="-2">Tu bitácora</text>
    <text x="80" y="370" font-size="86" font-weight="800" letter-spacing="-2">de vuelo</text>
    <text x="80" y="460" font-size="86" font-weight="800" letter-spacing="-2" fill="rgba(255,255,255,0.85)">inteligente</text>
    <text x="80" y="540" font-size="26" opacity=".85">Pilotos &amp; sobrecargos · iOS · Disponible en App Store</text>
  </g>
  <g transform="translate(820 110)">
    <rect x="0" y="0" width="300" height="420" rx="44" fill="url(#phone)" stroke="rgba(255,255,255,0.15)" stroke-width="2"/>
    <rect x="14" y="14" width="272" height="392" rx="32" fill="rgba(255,255,255,0.08)"/>
    <g fill="#fff" font-family="-apple-system, SF Pro Display, Helvetica">
      <rect x="30" y="50" width="240" height="70" rx="14" fill="rgba(255,255,255,0.15)"/>
      <text x="44" y="78" font-size="12" opacity=".75">VUELO HOY</text>
      <text x="44" y="104" font-size="22" font-weight="700">AM 404 MEX → MIA</text>
      <rect x="30" y="135" width="240" height="70" rx="14" fill="rgba(255,255,255,0.15)"/>
      <text x="44" y="163" font-size="12" opacity=".75">TIEMPO EXTRA</text>
      <text x="44" y="189" font-size="22" font-weight="700">04:35 hrs</text>
      <rect x="30" y="220" width="240" height="70" rx="14" fill="rgba(255,255,255,0.15)"/>
      <text x="44" y="248" font-size="12" opacity=".75">PRÓXIMO CHECK-IN</text>
      <text x="44" y="274" font-size="22" font-weight="700">en 6h 22m</text>
    </g>
  </g>
</svg>
